<?xml version="1.0" encoding="utf-8"?>
<!-- Generator: Adobe Illustrator 28.2.0, SVG Export Plug-In . SVG Version: 6.00 Build 0)  -->
<svg version="1.1" id="Layer_1" xmlns="http://www.w3.org/2000/svg" xmlns:xlink="http://www.w3.org/1999/xlink" x="0px" y="0px"
	 viewBox="0 0 595.28 373.46" style="enable-background:new 0 0 595.28 373.46;" xml:space="preserve">
<style type="text/css">
	.st0{fill:#FEF0F0;}
	.st1{fill:#596AA3;}
	.st2{font-family:'CronosPro-Bold';}
	.st3{font-size:60px;}
	.st4{letter-spacing:1;}
	.st5{fill:none;stroke:#61C9DA;stroke-width:3;stroke-miterlimit:10;}
	.st6{fill:none;stroke:#2497BF;stroke-width:3;stroke-miterlimit:10;}
	.st7{fill:none;stroke:#1D6CA5;stroke-width:3;stroke-miterlimit:10;}
	.st8{fill:none;stroke:#596AA3;stroke-width:3;stroke-miterlimit:10;}
	.st9{fill:none;}
</style>
<rect x="296.4" y="198.49" class="st0" width="82.1" height="138.38"/>
<rect x="421.96" y="226.16" transform="matrix(-1.836970e-16 1 -1 -1.836970e-16 758.3556 -167.6581)" class="st0" width="82.1" height="138.38"/>
<rect x="33.31" y="45.9" class="st0" width="309.6" height="138.38"/>
<text transform="matrix(1 0 0 1 269.669 111.3709)" class="st1 st2 st3 st4">W</text>
<text transform="matrix(1 0 0 -1 269.2123 115.2334)" class="st1 st2 st3 st4">W</text>
<path class="st5" d="M60.84,74.02c13.06,0,15.49,20.42,28.6,20.76s15.01-20.76,28.57-20.76s14.12,20.66,28.22,20.66
	c14.63,0,14.63-20.66,28.91-20.66c14.3,0,15.12,20.66,28.57,20.66c13.45,0,15.1-20.66,28.57-20.66c13.47,0,14.79,20.66,28.6,20.66"
	/>
<text transform="matrix(1 0 0 1 311.7397 266.6801)" class="st1 st2 st3 st4">W</text>
<text transform="matrix(1 0 0 -1 311.283 270.543)" class="st1 st2 st3 st4">W</text>
<text transform="matrix(1 0 0 1 409.7672 313.4276)" class="st1 st2 st3 st4">WM</text>
<path class="st6" d="M60.84,92.1c13.06,0,15.49,20.42,28.6,20.76s15.01-20.76,28.57-20.76s14.12,20.66,28.22,20.66
	c14.63,0,14.63-20.66,28.91-20.66c14.3,0,15.12,20.66,28.57,20.66c13.45,0,15.1-20.66,28.57-20.66c13.47,0,14.79,20.66,28.6,20.66"
	/>
<path class="st7" d="M60.84,111.37c13.06,0,15.49,20.42,28.6,20.76c13.11,0.34,15.01-20.76,28.57-20.76s14.12,20.66,28.22,20.66
	c14.63,0,14.63-20.66,28.91-20.66c14.3,0,15.12,20.66,28.57,20.66c13.45,0,15.1-20.66,28.57-20.66c13.47,0,14.79,20.66,28.6,20.66"
	/>
<path class="st8" d="M60.84,130.49c13.06,0,15.49,20.42,28.6,20.76s15.01-20.76,28.57-20.76s14.12,20.66,28.22,20.66
	c14.63,0,14.63-20.66,28.91-20.66c14.3,0,15.12,20.66,28.57,20.66c13.45,0,15.1-20.66,28.57-20.66c13.47,0,14.79,20.66,28.6,20.66"
	/>
<rect x="235.73" y="165.92" class="st9" width="21.12" height="0"/>
<rect x="39.94" y="197.49" class="st0" width="241.85" height="138.38"/>
<path class="st5" d="M60.84,227.84c13.06,0,15.49,20.42,28.6,20.76s15.01-20.76,28.57-20.76s14.12,20.66,28.22,20.66
	c14.63,0,14.63-20.66,28.91-20.66c14.3,0,15.12,20.66,28.57,20.66c13.45,0,15.1-20.66,28.57-20.66c13.47,0,14.79,20.66,28.6,20.66"
	/>
<path class="st6" d="M60.84,245.92c13.06,0,15.49,20.42,28.6,20.76s15.01-20.76,28.57-20.76s14.12,20.66,28.22,20.66
	c14.63,0,14.63-20.66,28.91-20.66c14.3,0,15.12,20.66,28.57,20.66c13.45,0,15.1-20.66,28.57-20.66c13.47,0,14.79,20.66,28.6,20.66"
	/>
<path class="st7" d="M60.84,265.19c13.06,0,15.49,20.42,28.6,20.76s15.01-20.76,28.57-20.76s14.12,20.66,28.22,20.66
	c14.63,0,14.63-20.66,28.91-20.66c14.3,0,15.12,20.66,28.57,20.66c13.45,0,15.1-20.66,28.57-20.66c13.47,0,14.79,20.66,28.6,20.66"
	/>
<path class="st8" d="M60.84,284.31c13.06,0,15.49,20.42,28.6,20.76s15.01-20.76,28.57-20.76s14.12,20.66,28.22,20.66
	c14.63,0,14.63-20.66,28.91-20.66c14.3,0,15.12,20.66,28.57,20.66c13.45,0,15.1-20.66,28.57-20.66c13.47,0,14.79,20.66,28.6,20.66"
	/>
<rect x="235.73" y="319.74" class="st9" width="21.12" height="0"/>
</svg>
